<svg width="17" height="17" viewBox="0 0 17 17" fill="none" xmlns="http://www.w3.org/2000/svg">
<path d="M4.125 0.913574V2.78857M12.875 0.913574V2.78857M1 14.0386V4.66357C1 4.16629 1.19754 3.68938 1.54917 3.33775C1.90081 2.98612 2.37772 2.78857 2.875 2.78857H14.125C14.6223 2.78857 15.0992 2.98612 15.4508 3.33775C15.8025 3.68938 16 4.16629 16 4.66357V14.0386M1 14.0386C1 14.5359 1.19754 15.0128 1.54917 15.3644C1.90081 15.716 2.37772 15.9136 2.875 15.9136H14.125C14.6223 15.9136 15.0992 15.716 15.4508 15.3644C15.8025 15.0128 16 14.5359 16 14.0386M1 14.0386V7.78857C1 7.29129 1.19754 6.81438 1.54917 6.46275C1.90081 6.11112 2.37772 5.91357 2.875 5.91357H14.125C14.6223 5.91357 15.0992 6.11112 15.4508 6.46275C15.8025 6.81438 16 7.29129 16 7.78857V14.0386" stroke="#CEA03E" stroke-width="1.5" stroke-linecap="round" stroke-linejoin="round"/>
</svg>
