<svg width="67" height="66" viewBox="0 0 67 66" fill="none" xmlns="http://www.w3.org/2000/svg">
<path d="M66.1766 33.3722C66.1766 39.8199 64.2646 46.1227 60.6825 51.4838C57.1003 56.8448 52.0089 61.0233 46.0521 63.4907C40.0952 65.9582 33.5404 66.6037 27.2166 65.3458C20.8928 64.0879 15.0841 60.9831 10.5249 56.4239C5.96572 51.8647 2.86085 46.0559 1.60298 39.7321C0.345099 33.4084 0.990689 26.8536 3.4581 20.8967C5.92552 14.9399 10.1039 9.84842 15.465 6.26629C20.826 2.68415 27.1289 0.772217 33.5766 0.772217C42.2226 0.772217 50.5145 4.20683 56.6282 10.3205C62.7419 16.4342 66.1766 24.7262 66.1766 33.3722Z" fill="white"/>
<path d="M61.6174 33.3718C61.6174 38.9175 59.9729 44.3386 56.892 48.9496C53.811 53.5606 49.4318 57.1544 44.3084 59.2767C39.1849 61.3989 33.5471 61.9541 28.1081 60.8722C22.669 59.7903 17.6729 57.1199 13.7516 53.1985C9.83021 49.2772 7.15974 44.2811 6.07784 38.8421C4.99595 33.403 5.5512 27.7652 7.67342 22.6417C9.79564 17.5182 13.3895 13.1391 18.0005 10.0581C22.6115 6.97712 28.0326 5.33264 33.5782 5.33264C41.0147 5.33264 48.1465 8.28676 53.4049 13.5451C58.6633 18.8035 61.6174 25.9354 61.6174 33.3718Z" fill="#009B3A"/>
<path d="M33.8584 10.7869L7.44531 34.1066L33.8584 57.4263L60.2716 34.1066L33.8584 10.7869Z" fill="#FEDF00"/>
<path d="M42.5029 33.3722C42.5029 35.1371 41.9796 36.8623 40.9991 38.3298C40.0186 39.7972 38.6249 40.941 36.9944 41.6163C35.3639 42.2917 33.5697 42.4684 31.8388 42.1241C30.1078 41.7798 28.5178 40.93 27.2698 39.682C26.0219 38.4341 25.172 36.8441 24.8277 35.1131C24.4834 33.3822 24.6601 31.588 25.3355 29.9574C26.0109 28.3269 27.1546 26.9332 28.6221 25.9527C30.0895 24.9721 31.8147 24.4489 33.5796 24.4489C35.9462 24.4489 38.2159 25.3889 39.8894 27.0624C41.5628 28.7358 42.5029 31.0056 42.5029 33.3722Z" fill="#002776"/>
</svg>
