<svg width="66" height="67" viewBox="0 0 66 67" fill="none" xmlns="http://www.w3.org/2000/svg">
<path d="M60.9071 34.1354C61.2582 18.6648 49.0014 5.83872 33.5307 5.48764C18.0601 5.13656 5.23407 17.3934 4.883 32.864C4.53192 48.3347 16.7888 61.1607 32.2594 61.5118C47.73 61.8629 60.556 49.606 60.9071 34.1354Z" fill="white"/>
<path d="M65.4967 33.5388C65.4967 39.9864 63.5848 46.2893 60.0027 51.6503C56.4205 57.0113 51.3291 61.1897 45.3723 63.6571C39.4154 66.1245 32.8607 66.7701 26.5369 65.5122C20.2131 64.2544 14.4044 61.1495 9.84522 56.5904C5.28604 52.0312 2.18115 46.2224 0.92328 39.8987C-0.334595 33.5749 0.311024 27.0202 2.77843 21.0633C5.24585 15.1065 9.42423 10.015 14.7853 6.4329C20.1463 2.85078 26.4492 0.938843 32.8968 0.938843C41.5428 0.938843 49.8348 4.37345 55.9485 10.4871C62.0621 16.6008 65.4967 24.8927 65.4967 33.5388Z" fill="white"/>
<path d="M22.9429 7.30408C17.6315 9.3161 13.0582 12.8969 9.83083 17.5706C6.60349 22.2443 4.87494 27.7896 4.87494 33.4693C4.87494 39.149 6.60349 44.6942 9.83083 49.3679C13.0582 54.0416 17.6315 57.6225 22.9429 59.6345V7.30408Z" fill="#007A3D"/>
<path d="M42.2724 59.9119C47.7302 57.9848 52.4561 54.4126 55.7988 49.6874C59.1415 44.9622 60.9365 39.3166 60.9365 33.5286C60.9365 27.7406 59.1415 22.0949 55.7988 17.3697C52.4561 12.6445 47.7302 9.07232 42.2724 7.14526V59.9119Z" fill="#CE2B37"/>
</svg>
