<svg width="12" height="10" viewBox="0 0 12 10" fill="none" xmlns="http://www.w3.org/2000/svg">
<path fill-rule="evenodd" clip-rule="evenodd" d="M0.646631 8.5596C0.600144 8.60608 0.563267 8.66127 0.538108 8.72201C0.512949 8.78275 0.5 8.84785 0.5 8.9136C0.5 8.97934 0.512949 9.04444 0.538108 9.10518C0.563267 9.16592 0.600144 9.22111 0.646631 9.2676C0.693119 9.31408 0.748309 9.35096 0.809048 9.37612C0.869788 9.40128 0.934888 9.41423 1.00063 9.41423C1.06638 9.41423 1.13148 9.40128 1.19221 9.37612C1.25295 9.35096 1.30814 9.31408 1.35463 9.2676L5.35463 5.2676C5.40119 5.22115 5.43814 5.16597 5.46334 5.10523C5.48855 5.04448 5.50152 4.97936 5.50152 4.9136C5.50152 4.84783 5.48855 4.78271 5.46334 4.72196C5.43814 4.66122 5.40119 4.60604 5.35463 4.5596L1.35463 0.559595C1.30814 0.513107 1.25295 0.476231 1.19221 0.451072C1.13148 0.425913 1.06638 0.412964 1.00063 0.412964C0.934888 0.412964 0.869788 0.425913 0.809048 0.451072C0.748309 0.476231 0.693119 0.513107 0.646631 0.559595C0.600144 0.606083 0.563267 0.661273 0.538108 0.722012C0.512949 0.782751 0.5 0.847852 0.5 0.913595C0.5 0.979339 0.512949 1.04444 0.538108 1.10518C0.563267 1.16592 0.600144 1.22111 0.646631 1.2676L4.29363 4.9136L0.646631 8.5596ZM6.64663 8.5596C6.55274 8.65348 6.5 8.78082 6.5 8.9136C6.5 9.04637 6.55274 9.17371 6.64663 9.2676C6.74052 9.36148 6.86786 9.41423 7.00063 9.41423C7.13341 9.41423 7.26074 9.36148 7.35463 9.2676L11.3546 5.2676C11.4012 5.22115 11.4381 5.16597 11.4633 5.10523C11.4886 5.04448 11.5015 4.97936 11.5015 4.9136C11.5015 4.84783 11.4886 4.78271 11.4633 4.72196C11.4381 4.66122 11.4012 4.60604 11.3546 4.5596L7.35463 0.559595C7.26074 0.465709 7.13341 0.412964 7.00063 0.412964C6.86786 0.412964 6.74052 0.465709 6.64663 0.559595C6.55274 0.653482 6.5 0.78082 6.5 0.913595C6.5 1.04637 6.55274 1.17371 6.64663 1.2676L10.2936 4.9136L6.64663 8.5596Z" fill="#CEA03E"/>
</svg>
