<svg width="18" height="18" viewBox="0 0 18 18" fill="none" xmlns="http://www.w3.org/2000/svg">
<path d="M12.5517 3.1527L13.9575 1.74604C14.2506 1.45297 14.648 1.28833 15.0625 1.28833C15.477 1.28833 15.8744 1.45297 16.1675 1.74604C16.4606 2.0391 16.6252 2.43658 16.6252 2.85104C16.6252 3.26549 16.4606 3.66297 16.1675 3.95604L7.31833 12.8052C6.87777 13.2455 6.33447 13.5691 5.7375 13.7469L3.5 14.4135L4.16667 12.176C4.3444 11.5791 4.66803 11.0358 5.10833 10.5952L12.5517 3.1527ZM12.5517 3.1527L14.75 5.35104M13.5 11.0802V15.0385C13.5 15.5358 13.3025 16.0127 12.9508 16.3644C12.5992 16.716 12.1223 16.9135 11.625 16.9135H2.875C2.37772 16.9135 1.90081 16.716 1.54917 16.3644C1.19754 16.0127 1 15.5358 1 15.0385V6.28854C1 5.79126 1.19754 5.31434 1.54917 4.96271C1.90081 4.61108 2.37772 4.41354 2.875 4.41354H6.83333" stroke="#CEA03E" stroke-width="1.5" stroke-linecap="round" stroke-linejoin="round"/>
</svg>
