<svg width="20" height="21" viewBox="0 0 20 21" fill="none" xmlns="http://www.w3.org/2000/svg">
<path d="M19.2262 3.10317L19.2916 3.08189L19.3306 3.0559C19.3348 3.05755 19.3396 3.05961 19.3452 3.06218C19.3589 3.06843 19.3749 3.07682 19.3937 3.08789C19.4246 3.12321 19.4519 3.16118 19.4718 3.19752C19.497 3.24387 19.4997 3.26803 19.5 3.27048C19.5 3.27071 19.5 3.27075 19.5 3.2706C19.5 8.80386 18.2849 12.4273 16.5287 14.9201C14.7716 17.4144 12.4347 18.832 10.0814 19.8857L10.0195 19.9134C10.0138 19.9134 10.0074 19.9135 10 19.9135C9.99259 19.9135 9.98623 19.9134 9.98051 19.9134L9.91862 19.8857C7.56533 18.832 5.22838 17.4144 3.47126 14.9201C1.71514 12.4273 0.5 8.80386 0.5 3.2706C0.5 3.27075 0.500004 3.27071 0.50003 3.27048C0.500299 3.26803 0.502954 3.24387 0.528234 3.19752C0.548054 3.16118 0.575383 3.12321 0.606348 3.08788C0.625077 3.07682 0.641123 3.06843 0.654756 3.06218C0.660357 3.05961 0.665238 3.05755 0.669429 3.0559L0.708416 3.08189L0.773778 3.10317C4.02878 4.16294 7.36003 3.32403 9.84234 0.992162L9.84803 0.986814L9.85355 0.981292C9.94401 0.890839 10.056 0.890839 10.1464 0.981291L10.152 0.986814L10.1577 0.992162C12.64 3.32403 15.9712 4.16294 19.2262 3.10317ZM10.1393 13.4099L14.425 9.12415C14.906 8.64317 14.906 7.89802 14.425 7.41704C13.944 6.93607 13.1989 6.93607 12.7179 7.41704L9.28571 10.8492L7.99641 9.5599C7.51543 9.07892 6.77028 9.07892 6.2893 9.5599C5.80833 10.0409 5.80833 10.786 6.2893 11.267L8.43216 13.4099C8.53311 13.5108 8.65392 13.6064 8.80586 13.6739C8.95997 13.7424 9.12023 13.7706 9.28571 13.7706C9.4512 13.7706 9.61146 13.7424 9.76557 13.6739C9.91751 13.6064 10.0383 13.5108 10.1393 13.4099Z" fill="white" stroke="#F3F5F7"/>
</svg>
